<?xml version="1.0" encoding="UTF-8" standalone="no" ?>
<!DOCTYPE svg PUBLIC "-//W3C//DTD SVG 1.1//EN" "http://www.w3.org/Graphics/SVG/1.1/DTD/svg11.dtd">
<svg xmlns="http://www.w3.org/2000/svg" xmlns:xlink="http://www.w3.org/1999/xlink" version="1.1" width="1280" height="1024" viewBox="0 0 1280 1024" xml:space="preserve">
<desc>Created with Fabric.js 5.3.0</desc>
<defs>
</defs>
<g transform="matrix(1 0 0 1 640 512)" id="background-logo"  >
<rect style="stroke: none; stroke-width: 0; stroke-dasharray: none; stroke-linecap: butt; stroke-dashoffset: 0; stroke-linejoin: miter; stroke-miterlimit: 4; fill: rgb(255,255,255); fill-opacity: 0; fill-rule: nonzero; opacity: 1;"  paint-order="stroke"  x="-640" y="-512" rx="0" ry="0" width="1280" height="1024" />
</g>
<g transform="matrix(2.7731504966423373 0 0 2.773150496642338 641.306907378336 434.74687604844326)" id="logo-logo"  >
<g style=""  paint-order="stroke"   >
		<g transform="matrix(1.479167430715044 0 0 1.479167430715044 0 0)"  >
<path style="stroke: none; stroke-width: 1; stroke-dasharray: none; stroke-linecap: butt; stroke-dashoffset: 0; stroke-linejoin: miter; stroke-miterlimit: 4; fill: rgb(124,96,150); fill-rule: nonzero; opacity: 1;"  paint-order="stroke"  transform=" translate(-149.99999902063985, -149.99999922764846)" d="M 199.3639679 118.2341919 C 184.4713898 95.6689301 163.0885773 92.5 163.0885773 92.5 C 163.0885773 92.5 161.9861908 93.0882263 164.5397187 96.5466309 C 170.70921330000002 104.90244299999999 184.5105897 106.3096238 193.222992 124.6351471 C 198.4225159 135.5715942 196.89959720000002 153.6041718 186.5218812 140.5534058 C 176.14416519999997 127.50263980000003 171.302765 133.9691162 171.302765 133.9691162 C 171.302765 133.9691162 180.5989228 141.635437 185.322281 154.9602356 C 186.6997224 158.8459473 188.5463563 161.8443756 190.470688 164.15007020000002 C 187.9008333 169.23625180000002 184.4077455 173.98245240000003 179.96330269999999 178.13237 C 161.3363038 195.5249176 132.0963746 195.9402618 112.98565679999999 179.0806427 C 91.96685799999999 160.5377197 90.4416962 128.67131039999998 108.93486789999999 108.2094574 C 108.59922789999999 108.5439377 108.25643929999998 108.86705780000001 107.92714699999999 109.2113724 C 85.20748909999999 132.9746247 86.6072617 170.98371889999999 111.4475251 192.9841461 C 133.53625499999998 212.5475921 167.2891846 212.30883790000001 189.09883129999997 192.4347381 C 195.48118599999998 186.6187744 200.21702589999998 179.7599639 203.38323989999998 172.3988342 L 203.40193189999997 172.40585320000002 C 206.4916534 166.5175171 214.2566071 140.7993927 199.3639679 118.2341919 z" stroke-linecap="round" />
</g>
		<g transform="matrix(1.479167430715044 0 0 1.479167430715044 9.978447897517185 -8.9850852922157)"  >
<path style="stroke: none; stroke-width: 1; stroke-dasharray: none; stroke-linecap: butt; stroke-dashoffset: 0; stroke-linejoin: miter; stroke-miterlimit: 4; fill: rgb(65,158,152); fill-rule: nonzero; opacity: 1;"  paint-order="stroke"  transform=" translate(-156.7459884808685, -143.96198600580206)" d="M 125.669632 159.1654053 C 126.0836258 160.4269257 125.2461091 167.4816437 127.5838776 175.0261231 C 129.58923339999998 181.49804690000002 146.361496 177.760727 146.361496 177.760727 C 149.3545533 182.4831086 149.0167694 185.9632569 147.3883362 188.4849091 C 159.7661743 188.1148224 171.2446137 183.0268097 179.8413544 174.03508000000002 C 182.2572327 171.50714120000004 184.3755036 168.7302247 186.162674 165.74931340000003 C 186.61355600000002 164.99729920000004 186.5963898 164.04093940000004 186.11418160000002 163.30865480000003 C 184.65020760000002 161.08538820000004 183.43740850000003 158.62620550000003 182.49327100000002 155.96415710000002 C 178.0981599 143.56544490000002 169.47993480000002 136.35623170000002 169.39297500000004 136.2848968 L 168.91711440000003 135.8923339 C 167.94731150000004 135.09225460000002 167.77705400000002 133.67146290000002 168.53034990000003 132.66484060000002 L 168.90049760000002 132.170227 C 169.1154634 131.8834381 171.11172500000004 129.3654022 174.9869997 129.3654022 C 179.2824404 129.3654022 183.954056 132.5009918 188.87094140000002 138.6851959 C 188.89006070000002 138.709198 188.90905790000002 138.7330169 188.927994 138.7567138 C 190.32777430000002 140.5064391 193.1478121 139.4585876 193.1088564 137.2181701 C 193.0531008 134.01821890000002 192.3526156 129.7944793 190.51251240000002 125.923973 C 185.39044210000003 115.1516723 178.41181970000002 110.6617889 172.25398270000002 106.7010192 C 168.90696730000002 104.5484771 165.7247316 102.4962768 163.23635880000003 99.6923598 C 158.66201800000005 99.1447447 153.75552380000002 99.4549788 148.62127700000002 100.91822040000001 C 122.71456920000003 108.3016738 127.15998850000003 134.0519255 127.94846360000003 140.2966002 C 128.51818860000003 144.8087157 120.38272110000003 151.9186858 120.38272110000003 154.1519011 C 120.3827209 156.3566589 125.669632 159.1654053 125.669632 159.1654053 z" stroke-linecap="round" />
</g>
		<g transform="matrix(1.479167430715044 0 0 1.479167430715044 -29.658815385527646 -13.301751003442831)"  >
<path style="stroke: none; stroke-width: 1; stroke-dasharray: none; stroke-linecap: butt; stroke-dashoffset: 0; stroke-linejoin: miter; stroke-miterlimit: 4; fill: rgb(243,243,254); fill-rule: nonzero; opacity: 1;"  paint-order="stroke"  transform=" translate(-129.94897925799518, -141.00727080000004)" d="M 145.2824554 186.0859375 C 145.8530883 184.7111359 145.6860046 183.0431824 144.7890014 181.1114044 C 142.8225402 181.4377746 139.80470269999998 181.836441 136.7643737 181.836441 C 129.98753349999998 181.836441 125.93443289999999 179.8440857 124.71644579999999 175.914093 C 122.94394669999998 170.1930389 122.86724079999999 164.8882294 122.8218077 161.71942140000002 C 122.8183821 161.4839325 122.81447589999999 161.2298737 122.8100813 160.9865723 C 120.3350294 159.4632416 117.3811796 157.0399781 117.3811796 154.1515961 C 117.3811796 152.2462006 118.7310789 150.49862670000002 120.77375769999999 147.8530579 C 122.19742559999999 146.00971990000002 125.15957619999999 142.1740265 124.97000859999999 140.67266850000001 L 124.87181069999998 139.91979980000002 C 121.87546519999998 117.31453700000003 129.588867 103.22100070000002 147.79853799999998 98.03149410000003 C 151.53701759999998 96.96643060000004 155.31750469999997 96.42607880000003 159.0354612 96.42607880000003 C 159.6649168 96.42607880000003 160.29215979999998 96.44336700000002 160.91740389999998 96.47377780000002 C 160.49656649999997 95.72469330000003 160.19274869999998 95.02940370000002 160.02571079999998 94.38340760000003 C 157.00030489999997 93.85649110000003 153.89372229999998 93.56604000000003 150.71751379999998 93.56604000000003 C 130.96227999999996 93.56604000000003 113.69840219999998 104.19866940000003 104.31130189999998 120.04742430000003 C 94.82917759999998 138.12951660000004 98.05001799999998 160.70498660000004 113.54890409999997 175.52421570000004 C 121.70397919999998 183.32067870000003 132.22998009999998 187.85356140000005 143.41841089999997 188.44850160000004 C 144.2302094 187.7740479 144.907547 186.9899597 145.2824554 186.0859375 z" stroke-linecap="round" />
</g>
</g>
</g>
</svg>